<svg width="26" height="28" viewBox="0 0 26 28" fill="none" xmlns="http://www.w3.org/2000/svg">
<path d="M24.511 4.43399C19.8944 3.74409 15.5023 1.41569 13.3001 0.0819268C13.1161 -0.0273089 12.8862 -0.0273089 12.7022 0.0819268C10.5003 1.41573 6.10787 3.7499 1.49126 4.43988C1.22679 4.47437 1.01984 4.69859 1.00259 4.9688C-0.0322607 21.0778 9.74719 26.6316 12.7654 27.954C12.8402 27.9885 12.9149 28 12.9954 28C13.0759 28 13.1564 27.9885 13.2311 27.954C16.2494 26.6145 26.0172 21.0031 24.9995 4.9688C24.9823 4.69859 24.7755 4.47421 24.511 4.43399ZM13.0013 18.4332C10.1498 18.4332 7.82728 16.1106 7.82728 13.2592C7.82728 10.4078 10.1499 8.08512 13.0013 8.08512C15.8527 8.08512 18.1754 10.4078 18.1754 13.2592C18.1754 16.1106 15.8527 18.4332 13.0013 18.4332Z" fill="#A2A9AD"/>
</svg>
