<?xml version="1.0" encoding="utf-8"?>
<!-- Generator: Adobe Illustrator 16.0.0, SVG Export Plug-In . SVG Version: 6.00 Build 0)  -->
<!DOCTYPE svg PUBLIC "-//W3C//DTD SVG 1.1//EN" "http://www.w3.org/Graphics/SVG/1.1/DTD/svg11.dtd">
<svg version="1.1" id="Layer_1" xmlns="http://www.w3.org/2000/svg" xmlns:xlink="http://www.w3.org/1999/xlink" x="0px" y="0px"
	 width="197px" height="43px" viewBox="0 0 197 43" enable-background="new 0 0 197 43" xml:space="preserve">
<g>
	<path fill="#F37321" d="M156.213,21.5c0,11.875-9.565,21.5-21.351,21.5c-11.784,0-21.334-9.625-21.334-21.5
		c0-11.875,9.558-21.5,21.334-21.5C146.647,0,156.213,9.625,156.213,21.5"/>
	<path fill="#FFFFFF" d="M127.186,37.139V8.265h7.989v7.28c1.468-2.829,2.936-4.851,4.403-6.065
		c1.459-1.215,3.138-1.818,5.044-1.818c0.811,0,0.684,0.229,0.684,0.229l-0.38,5.165c0,0,0.507,0,0,0
		c-2.354,0-4.538,1.147-6.529,3.432c-1.999,2.285-3.003,5.037-3.003,8.231v12.427h-8.208V37.139L127.186,37.139z"/>
	<g>
		<path fill="#231F20" d="M14.712,22.341c0-2.896-1.333-4.196-3.188-4.196c-1.999,0-3.552,1.3-4.421,3.891v14.398
			c0,1.402,0.203,1.665,2.16,2.328c0.464,0.16,0.726,0.322,0.726,0.619c0,0.314-0.16,0.621-0.616,0.621
			c-0.979,0-2.37-0.205-4.487-0.205c-1.637,0-3.231,0.205-4.05,0.205c-0.573,0.008-0.826-0.086-0.826-0.561
			c0-0.417,0.404-0.621,1.079-0.773c1.393-0.314,1.797-0.672,1.797-2.438V9.285c0-2.438-0.919-2.276-1.797-2.438
			C0.523,6.796,0.16,6.745,0.16,6.277c0-0.467,0.363-0.62,1.038-0.781C4.69,4.783,5.517,3.118,6.689,3.118
			c0.313,0,0.413,0.144,0.413,0.722v15.8h0.102c2.008-2.591,3.914-4.094,6.074-4.094c3.188,0,5.66,1.656,5.66,6.533V36.9
			c0,0.833,0.515,1.343,2.261,1.861c0.354,0.109,0.616,0.322,0.616,0.68c0,0.365-0.254,0.568-0.676,0.568
			c-0.615,0-1.796-0.203-4.42-0.203c-1.24,0-2.522,0.203-3.754,0.203c-0.624,0-0.928-0.161-0.928-0.518
			c0-0.408,0.144-0.519,0.869-0.73c1.552-0.459,1.796-0.714,1.796-1.861v-14.56H14.712z"/>
		<path fill="#231F20" d="M22.338,28.092c0,6.686,4.167,12.538,9.878,12.538s9.87-5.853,9.87-12.538
			c0-6.685-4.159-12.538-9.87-12.538C26.514,15.554,22.338,21.407,22.338,28.092z M32.216,16.802c3.341,0,5.138,6.473,5.138,11.29
			S35.557,39.39,32.216,39.39c-3.34,0-5.146-6.481-5.146-11.298S28.876,16.802,32.216,16.802z"/>
		<path fill="#231F20" d="M49.914,36.586c0,1.504,0.464,1.818,1.907,2.176c0.928,0.263,1.079,0.475,1.079,0.73
			c0,0.314-0.261,0.518-0.564,0.518c-0.929,0-2.886-0.203-4.319-0.203c-1.35,0-3.046,0.203-4.125,0.203
			c-0.776,0-0.971-0.102-0.971-0.467c0-0.416,0.152-0.569,0.92-0.781c1.434-0.357,1.848-0.519,1.848-1.963V21.101
			c0-1.036-0.414-1.453-1.393-1.503c-0.826-0.051-1.029,0-1.029-0.416c0-0.467,0.161-0.417,2.624-1.504
			c3.138-1.401,3.239-2.429,3.805-2.429c0.253,0,0.413,0.102,0.413,1.138v2.276c0,0.264,0.051,0.314,0.152,0.314
			c0.312,0.051,2.37-3.423,6.335-3.423c4.016,0,4.276,3.576,5.036,3.576c0.776,0,2.421-3.576,6.217-3.576
			c2.885,0,5.509,2.022,5.509,5.963v15.18c0,1.087,0.253,1.605,1.645,2.021c0.979,0.314,1.384,0.373,1.384,0.781
			c0,0.416-0.304,0.519-0.666,0.519c-1.021,0-2.979-0.204-4.479-0.204c-1.231,0-3.181,0.204-3.965,0.204
			c-0.557,0-0.818-0.204-0.818-0.468c0-0.518,0.615-0.671,0.979-0.781c1.603-0.459,1.695-0.671,1.695-2.591V21.67
			c0-2.276-1.13-3.525-3.18-3.525c-2.312,0-4.328,2.124-4.328,4.256v13.473c0,2.132,0.262,2.693,1.806,2.956
			c0.986,0.204,1.442,0.365,1.442,0.772c0,0.256-0.16,0.417-0.624,0.417c-1.182,0-3.13-0.204-4.732-0.204
			c-0.979,0-3.037,0.204-4.066,0.204c-0.565,0-0.666-0.204-0.666-0.519c0-0.365,0.253-0.518,1.181-0.73
			c0.726-0.145,1.442-0.459,1.442-1.656V22.137c0-2.65-1.502-4-3.096-4c-2.564,0-4.421,1.971-4.421,4.459v13.99H49.914z"/>
		<path fill="#231F20" d="M81.557,28.661c0-1.657,0.211-1.817,1.089-1.817h10.165c1.146,0,1.552-0.365,1.552-2.115
			c0-4.511-2.421-9.175-7.77-9.175c-6.065,0-9.769,6.116-9.769,12.802c0,7.977,4.168,12.274,9.364,12.274
			c5.753,0,8.174-4.825,8.174-6.116c0-0.408-0.144-0.611-0.565-0.611c-1.071,0-0.768,4.146-6.175,4.146
			C83.717,38.048,81.557,33.639,81.557,28.661z M81.768,24.523c0-1.027,0.726-7.721,4.985-7.721c2.522,0,3.4,2.948,3.4,5.131
			c0,3.007-1.393,3.678-6.234,3.678C82.215,25.611,81.768,25.348,81.768,24.523z"/>
	</g>
	<path fill="#231F20" d="M96.521,33.528c0-0.68,0.254-0.985,0.769-0.985c0.464,0,0.768,0.459,1.442,2.379
		c0.936,2.744,2.312,4.451,4.791,4.451c2.37,0,3.813-1.963,3.813-4.502c0-6.057-10.916-5.811-10.916-12.386
		c0-4.562,4.378-6.949,7.921-6.949c1.806,0,3.906,0.365,4.732,0.73c0.616,0.264,0.667,0.569,0.667,3.678
		c0,1.657-0.152,1.971-0.92,1.971c-1.442,0-0.666-5.13-5.298-5.13c-2.159,0-3.509,1.453-3.509,3.466
		c0,5.445,10.907,4.817,10.907,12.64c0,4.349-3.695,7.722-9.061,7.722c-2.159,0-5.348-0.824-5.348-1.759v-5.326H96.521
		L96.521,33.528z"/>
	<g>
		<path fill="#231F20" d="M178.02,36.068c0,1.096,0.616,1.291,1.493,1.504c0.667,0.102,1.282,0.195,1.282,0.518
			c0,0.527-0.405,0.416-1.595,0.781c-0.97,0.314-2.674,0.833-3.644,1.496c-0.262,0.16-0.523,0.263-0.776,0.263
			c-0.413,0-0.413-0.519-0.413-1.036v-2.072c0-0.468-0.211-0.621-0.405-0.621c-0.515,0-2.986,3.525-6.377,3.525
			c-3.45,0-5.618-2.021-5.618-6.686V19.181c0-1.555-1.08-1.665-1.957-1.708c-0.558-0.051-1.131-0.153-1.131-0.671
			c0-0.416,0.262-0.671,0.776-0.671h5.719c0.667,0,0.827,0.255,0.827,0.935v16.42c0,3.007,1.231,4.357,3.543,4.357
			c2.328,0,4.074-1.869,4.074-4.256V19.232c0-1.555-1.079-1.656-1.948-1.716c-0.573-0.051-1.139-0.153-1.139-0.671
			c0-0.416,0.262-0.679,0.768-0.679h5.702c0.667,0,0.827,0.263,0.827,0.934v18.969H178.02z"/>
		<path fill="#231F20" d="M182.592,33.528c0-0.68,0.262-0.985,0.768-0.985c0.464,0,0.776,0.459,1.451,2.379
			c0.928,2.744,2.312,4.451,4.774,4.451c2.37,0,3.821-1.963,3.821-4.502c0-6.057-10.916-5.811-10.916-12.386
			c0-4.562,4.379-6.949,7.922-6.949c1.805,0,3.914,0.365,4.732,0.73c0.615,0.264,0.666,0.569,0.666,3.678
			c0,1.657-0.151,1.971-0.928,1.971c-1.442,0-0.667-5.13-5.307-5.13c-2.159,0-3.5,1.453-3.5,3.466
			c0,5.445,10.915,4.817,10.915,12.64c0,4.349-3.703,7.722-9.06,7.722c-2.159,0-5.349-0.824-5.349-1.759v-5.326H182.592
			L182.592,33.528z"/>
	</g>
</g>
</svg>
